<svg xmlns="http://www.w3.org/2000/svg" xmlns:xlink="http://www.w3.org/1999/xlink" style="align-content: normal; align-items: normal; align-self: auto; alignment-baseline: auto; animation-delay: 0s; animation-direction: normal; animation-duration: 0s; animation-fill-mode: none; animation-iteration-count: 1; animation-name: none; animation-play-state: running; animation-timing-function: ease; appearance: none; backdrop-filter: none; backface-visibility: visible; background-attachment: scroll; background-blend-mode: normal; background-clip: border-box; background-color: rgba(0, 0, 0, 0); background-image: none; background-origin: padding-box; background-position: 0% 0%; background-repeat: repeat; background-size: auto; baseline-shift: 0px; block-size: 260.734px; border-block-end-color: rgb(236, 239, 244); border-block-end-style: none; border-block-end-width: 0px; border-block-start-color: rgb(236, 239, 244); border-block-start-style: none; border-block-start-width: 0px; border-bottom-color: rgb(236, 239, 244); border-bottom-left-radius: 0px; border-bottom-right-radius: 0px; border-bottom-style: none; border-bottom-width: 0px; border-collapse: separate; border-image-outset: 0; border-image-repeat: stretch; border-image-slice: 100%; border-image-source: none; border-image-width: 1; border-inline-end-color: rgb(236, 239, 244); border-inline-end-style: none; border-inline-end-width: 0px; border-inline-start-color: rgb(236, 239, 244); border-inline-start-style: none; border-inline-start-width: 0px; border-left-color: rgb(236, 239, 244); border-left-style: none; border-left-width: 0px; border-right-color: rgb(236, 239, 244); border-right-style: none; border-right-width: 0px; border-top-color: rgb(236, 239, 244); border-top-left-radius: 0px; border-top-right-radius: 0px; border-top-style: none; border-top-width: 0px; bottom: auto; box-shadow: none; box-sizing: border-box; break-after: auto; break-before: auto; break-inside: auto; buffered-rendering: auto; caption-side: top; caret-color: rgb(236, 239, 244); clear: none; clip: auto; clip-path: none; clip-rule: nonzero; color: rgb(236, 239, 244); color-interpolation: srgb; color-interpolation-filters: linearrgb; color-rendering: auto; column-count: auto; column-gap: normal; column-rule-color: rgb(236, 239, 244); column-rule-style: none; column-rule-width: 0px; column-span: none; column-width: auto; content: normal; cursor: auto; cx: 0px; cy: 0px; d: none; direction: ltr; display: inline; dominant-baseline: auto; empty-cells: show; fill: rgb(0, 0, 0); fill-opacity: 1; fill-rule: nonzero; filter: none; flex-basis: auto; flex-direction: row; flex-grow: 0; flex-shrink: 1; flex-wrap: nowrap; float: none; flood-color: rgb(0, 0, 0); flood-opacity: 1; font-family: Rubik; font-kerning: auto; font-optical-sizing: auto; font-size: 16px; font-stretch: 100%; font-style: normal; font-variant: normal; font-variant-caps: normal; font-variant-east-asian: normal; font-variant-ligatures: normal; font-variant-numeric: normal; font-weight: 400; grid-auto-columns: auto; grid-auto-flow: row; grid-auto-rows: auto; grid-column-end: auto; grid-column-start: auto; grid-row-end: auto; grid-row-start: auto; grid-template-areas: none; grid-template-columns: none; grid-template-rows: none; height: 260.734px; hyphens: manual; image-orientation: from-image; image-rendering: auto; inline-size: 584px; isolation: auto; justify-content: normal; justify-items: normal; justify-self: auto; left: auto; letter-spacing: normal; lighting-color: rgb(255, 255, 255); line-break: auto; line-height: 24px; list-style-image: none; list-style-position: outside; list-style-type: disc; margin-block-end: 0px; margin-block-start: 0px; margin-bottom: 0px; margin-inline-end: 0px; margin-inline-start: 0px; margin-left: 0px; margin-right: 0px; margin-top: 0px; marker-end: none; marker-mid: none; marker-start: none; mask: none; mask-type: luminance; max-block-size: none; max-height: none; max-inline-size: none; max-width: none; min-block-size: 0px; min-height: 0px; min-inline-size: 0px; min-width: 0px; mix-blend-mode: normal; object-fit: fill; object-position: 50% 50%; offset-distance: 0px; offset-path: none; offset-rotate: auto 0deg; opacity: 1; order: 0; orphans: 2; outline-color: rgb(236, 239, 244); outline-offset: 0px; outline-style: none; outline-width: 0px; overflow-anchor: auto; overflow-wrap: normal; overflow-x: hidden; overflow-y: hidden; overscroll-behavior-block: auto; overscroll-behavior-inline: auto; padding-block-end: 0px; padding-block-start: 0px; padding-bottom: 0px; padding-inline-end: 0px; padding-inline-start: 0px; padding-left: 0px; padding-right: 0px; padding-top: 0px; paint-order: normal; perspective: none; perspective-origin: 292px 130.359px; pointer-events: auto; position: static; r: 0px; resize: none; right: auto; row-gap: normal; ruby-position: over; rx: auto; ry: auto; scroll-behavior: auto; scroll-margin-block-end: 0px; scroll-margin-block-start: 0px; scroll-margin-inline-end: 0px; scroll-margin-inline-start: 0px; scroll-padding-block-end: auto; scroll-padding-block-start: auto; scroll-padding-inline-end: auto; scroll-padding-inline-start: auto; shape-image-threshold: 0; shape-margin: 0px; shape-outside: none; shape-rendering: auto; speak: normal; stop-color: rgb(0, 0, 0); stop-opacity: 1; stroke: none; stroke-dasharray: none; stroke-dashoffset: 0px; stroke-linecap: butt; stroke-linejoin: miter; stroke-miterlimit: 4; stroke-opacity: 1; stroke-width: 1px; tab-size: 4; table-layout: auto; text-align: start; text-align-last: auto; text-anchor: start; text-decoration: none solid rgb(236, 239, 244); text-decoration-color: rgb(236, 239, 244); text-decoration-line: none; text-decoration-skip-ink: auto; text-decoration-style: solid; text-indent: 0px; text-overflow: clip; text-rendering: auto; text-shadow: none; text-size-adjust: 100%; text-transform: none; text-underline-position: auto; top: auto; touch-action: auto; transform: none; transform-origin: 292px 130.367px; transform-style: flat; transition-delay: 0s; transition-duration: 0s; transition-property: all; transition-timing-function: ease; unicode-bidi: normal; user-select: auto; vector-effect: none; vertical-align: baseline; visibility: visible; white-space: normal; widows: 2; width: 584px; will-change: auto; word-break: normal; word-spacing: 0px; writing-mode: horizontal-tb; x: 0px; y: 0px; z-index: auto; zoom: 1; -webkit-app-region: none; -webkit-border-horizontal-spacing: 0px; -webkit-border-image: none; -webkit-border-vertical-spacing: 0px; -webkit-box-align: stretch; -webkit-box-decoration-break: slice; -webkit-box-direction: normal; -webkit-box-flex: 0; -webkit-box-ordinal-group: 1; -webkit-box-orient: horizontal; -webkit-box-pack: start; -webkit-box-reflect: none; -webkit-font-smoothing: auto; -webkit-highlight: none; -webkit-hyphenate-character: auto; -webkit-line-break: auto; -webkit-line-clamp: none; -webkit-locale: &quot;en&quot;; -webkit-mask-box-image: none; -webkit-mask-box-image-outset: 0; -webkit-mask-box-image-repeat: stretch; -webkit-mask-box-image-slice: 0 fill; -webkit-mask-box-image-source: none; -webkit-mask-box-image-width: auto; -webkit-mask-clip: border-box; -webkit-mask-composite: source-over; -webkit-mask-image: none; -webkit-mask-origin: border-box; -webkit-mask-position: 0% 0%; -webkit-mask-repeat: repeat; -webkit-mask-size: auto; -webkit-print-color-adjust: economy; -webkit-rtl-ordering: logical; -webkit-tap-highlight-color: rgba(0, 0, 0, 0.18); -webkit-text-combine: none; -webkit-text-decorations-in-effect: none; -webkit-text-emphasis-color: rgb(236, 239, 244); -webkit-text-emphasis-position: over right; -webkit-text-emphasis-style: none; -webkit-text-fill-color: rgb(236, 239, 244); -webkit-text-orientation: vertical-right; -webkit-text-security: none; -webkit-text-stroke-color: rgb(236, 239, 244); -webkit-text-stroke-width: 0px; -webkit-user-drag: auto; -webkit-user-modify: read-only; -webkit-writing-mode: horizontal-tb;" version="1.1"><style type="text/css">*, ::before, ::after { box-sizing: inherit; }
.hStijO { fill: none; stroke-miterlimit: 10; stroke-width: 2; stroke: rgb(76, 86, 106); }
.jeDmiu { fill: url("#arctic-landscape-aurora-borealis-gleam"); }
.frsnQi { fill: rgb(236, 239, 244); }
.frkXrL { fill: none; stroke-miterlimit: 10; stroke-width: 2; stroke: rgb(76, 86, 106); }
.itxKCd { fill: rgb(136, 192, 208); }
.gTeYDG { fill: none; stroke-miterlimit: 10; stroke-width: 2; stroke: rgb(76, 86, 106); }
.kVgGWV { fill: rgb(236, 239, 244); }
.GmSMi { fill: rgb(46, 52, 64); }
.foivMo { opacity: 0.1; stroke: rgb(59, 66, 82); }
.dZFFUE { opacity: 0.1; stroke: rgb(59, 66, 82); stroke-linejoin: round; stroke-miterlimit: 10; stroke-width: 2; }
.gyYrcy { fill: none; stroke-miterlimit: 10; stroke-width: 2; stroke: rgb(76, 86, 106); }
.djtMVB { fill: none; stroke-miterlimit: 10; stroke-width: 2; stroke: rgb(76, 86, 106); }</style><svg viewBox="0 0 624.443 278.807"><defs><linearGradient id="arctic-landscape-aurora-borealis-gleam" x1="50%" x2="50%" y1="0%" y2="100%"><stop offset="0%" stop-color="#8fbcbb"><animate attributeName="stop-color" dur="4s" repeatCount="indefinite" values="#8fbcbb; #88c0d0; #8fbcbb"/></stop><stop offset="50%" stop-color="#88c0d0"><animate attributeName="stop-color" dur="4s" repeatCount="indefinite" values="#88c0d0; #81a1c1; #88c0d0"/></stop><stop offset="100%" stop-color="#81a1c1"><animate attributeName="stop-color" dur="4s" repeatCount="indefinite" values="#81a1c1; #5e81ac; #81a1c1"/></stop></linearGradient></defs><path d="M560.821 23.76v26.46c0 1.12-1.119 2.03-2.5 2.03-1.379 0-2.5-.91-2.5-2.03V48.1c0-1.13-1.119-2.04-2.5-2.04-1.379 0-2.5.91-2.5 2.04v5.181c0 1.119-1.119 2.029-2.5 2.029-1.379 0-2.5-.91-2.5-2.029V43.18c0-1.13-1.119-2.04-2.5-2.04-1.379 0-2.5.91-2.5 2.04v9.08c0 1.12-1.119 2.03-2.5 2.03-1.379 0-2.5-.91-2.5-2.03v-5.08c0-1.12-1.119-2.03-2.5-2.03-1.379 0-2.5.91-2.5 2.03v.37c0 1.13-1.119 2.04-2.5 2.04-1.379 0-2.5-.91-2.5-2.04V36.36c0-1.121-1.119-2.041-2.5-2.041-1.379 0-2.5.92-2.5 2.041v4.569c0 1.12-1.119 2.04-2.5 2.04-1.379 0-2.5-.92-2.5-2.04v-3.68c0-1.12-1.119-2.03-2.5-2.03-1.379 0-2.5.91-2.5 2.03v4.92c0 1.13-1.119 2.04-2.5 2.04-1.379 0-2.5-.91-2.5-2.04v-.681c0-1.119-1.119-2.039-2.5-2.039-1.379 0-2.5.92-2.5 2.039v5.49c0 1.12-1.119 2.041-2.5 2.041-1.379 0-2.5-.921-2.5-2.041v-.74c0-1.119-1.119-2.029-2.5-2.029-1.379 0-2.5.91-2.5 2.029v5.511c0 1.12-1.119 2.03-2.5 2.03-1.379 0-2.49-.9-2.5-2.021V45c0-1.12-1.119-2.03-2.5-2.03-1.379 0-2.5.91-2.5 2.03v8.85c0 1.12-1.119 2.03-2.5 2.03-1.379 0-2.5-.91-2.5-2.03v-4.73c0-1.12-1.119-2.03-2.5-2.03-1.379 0-2.5.91-2.5 2.03v1.99c0 1.119-1.119 2.029-2.5 2.029-1.149 0-2.119-.63-2.41-1.49V43.8c0-1.13-1.14-2.04-2.549-2.04-1.4 0-2.541.91-2.541 2.04v4.641c0 1.129-1.119 2.039-2.5 2.039-1.379 0-2.5-.91-2.5-2.039v-.931c0-1.12-1.119-2.03-2.5-2.03-1.379 0-2.5.91-2.5 2.03v9.19c0 1.129-1.119 2.039-2.5 2.039-1.379 0-2.5-.91-2.5-2.039v-2.07c0-1.13-1.119-2.04-2.5-2.04-1.379 0-2.5.91-2.5 2.04v6.189c0 1.131-1.119 2.041-2.5 2.041-1.379 0-2.5-.91-2.5-2.041V48.6c-.01-1.12-1.119-2.03-2.5-2.03-1.379 0-2.5.91-2.5 2.041v6.229c0 1.12-1.119 2.03-2.5 2.03-1.379 0-2.5-.91-2.5-2.03v-8.851c0-1.129-1.119-2.039-2.5-2.039-1.379 0-2.5.91-2.5 2.039v3.721c0 1.119-1.119 2.029-2.5 2.029-1.379 0-2.5-.91-2.5-2.029v-.391c-.01-1.119-1.119-2.029-2.5-2.029-1.379 0-2.5.91-2.5 2.039V51.7c0 1.119-1.119 2.039-2.5 2.039-1.379 0-2.5-.92-2.5-2.039v-6.39c0 1.12-1.119 2.03-2.5 2.03-1.379 0-2.5-.91-2.5-2.03v-7.07c0-1.119-1.119-2.039-2.5-2.039-1.379 0-2.5.92-2.5 2.039v9.06c0 1.12-1.119 2.029-2.5 2.029-1.379 0-2.5-.909-2.5-2.029v-6.74c0-1.13-1.119-2.039-2.5-2.039-1.379 0-2.5.909-2.5 2.039v1.61c0 1.12-1.119 2.03-2.5 2.03-1.379 0-2.5-.91-2.5-2.03v-8.62c0-1.12-1.119-2.029-2.5-2.029-1.379 0-2.5.899-2.5 2.02v2.64c0 1.13-1.119 2.04-2.5 2.04-1.379 0-2.5-.91-2.5-2.04v-4.409c0-1.121-1.119-2.031-2.5-2.031-1.379 0-2.5.91-2.5 2.031V40.3c0 1.13-1.119 2.04-2.5 2.04-1.379 0-2.5-.91-2.5-2.04v-4.5c0-1.12-1.119-2.029-2.5-2.029-1.379 0-2.5.909-2.5 2.029v12.77c0 1.121-1.119 2.03-2.5 2.03-1.379 0-2.5-.909-2.5-2.04v-7.7c0-1.131-1.119-2.041-2.5-2.041-1.379 0-2.5.91-2.5 2.041v5.049c0 1.121-1.119 2.031-2.5 2.031-1.379 0-2.5-.91-2.5-2.041V35.6c0-1.13-1.119-2.04-2.5-2.04-1.379 0-2.5.91-2.5 2.04v7.56c0 1.121-1.119 2.031-2.5 2.031-1.379 0-2.5-.91-2.5-2.031v-1.59c0-1.129-1.119-2.039-2.5-2.039-1.379 0-2.5.91-2.5 2.039v3.69c0 1.12-1.119 2.03-2.5 2.03-1.379 0-2.5-.91-2.5-2.03v-4.4c0-1.131-1.119-2.041-2.5-2.041-1.379 0-2.5.91-2.5 2.041v9.17c0 1.119-1.119 2.029-2.5 2.029-1.379 0-2.5-.91-2.5-2.029v-6.041c0-1.129-1.12-2.039-2.5-2.039s-2.5.91-2.5 2.039v10.84c0 1.131-1.12 2.041-2.5 2.041s-2.5-.91-2.5-2.041v.23c0-1.13-1.12-2.039-2.5-2.039s-2.5.909-2.5 2.039v1.02c0 1.121-1.12 2.031-2.5 2.031s-2.5-.91-2.5-2.031v-7.26c0-1.129-1.12-2.039-2.5-2.039s-2.5.91-2.5 2.039v.631c0 1.129-1.12 2.039-2.5 2.039s-2.5-.91-2.5-2.039v-8.59c0-1.131-1.12-2.041-2.5-2.041s-2.5.91-2.5 2.041v3.89c0 1.12-1.12 2.03-2.5 2.03s-2.5-.91-2.5-2.03v-1.69c0-1.119-1.12-2.029-2.5-2.029s-2.5.91-2.5 2.029v.67c0 1.12-1.12 2.041-2.5 2.041s-2.5-.921-2.5-2.041V32.54c0-1.131-1.12-2.04-2.5-2.04s-2.5.909-2.5 2.04v14.25c0 1.119-1.12 2.039-2.5 2.039s-2.5-.92-2.5-2.039v-6.53c0 1.12-1.12 2.04-2.5 2.04s-2.5-.92-2.5-2.04v-2.37c0-1.13-1.12-2.04-2.5-2.04s-2.5.91-2.5 2.03v.391c0 1.119-1.12 2.029-2.5 2.029s-2.5-.91-2.5-2.029v-3.73c0-1.12-1.12-2.03-2.5-2.03s-2.5.91-2.5 2.03V43.4c0 1.121-1.12 2.03-2.5 2.03s-2.5-.909-2.5-2.03v-6.23c0-1.13-1.12-2.04-2.5-2.04s-2.5.91-2.5 2.029V49.38c0 1.13-1.12 2.04-2.5 2.04s-2.5-.91-2.5-2.04v-6.19c0-1.131-1.12-2.041-2.5-2.041s-2.5.91-2.5 2.041v2.069c0 1.13-1.12 2.04-2.5 2.04s-2.5-.91-2.5-2.04v-9.19c0-1.119-1.12-2.029-2.5-2.029s-2.5.91-2.5 2.029V37c0 1.13-1.12 2.04-2.5 2.04s-2.5-.91-2.5-2.04v-4.64c0-1.131-1.14-2.041-2.55-2.041-1.4 0-2.54.91-2.54 2.041v7.85c-.3.859-1.26 1.49-2.41 1.49-1.38 0-2.5-.91-2.5-2.03v-1.99c0-1.12-1.12-2.03-2.5-2.03s-2.5.91-2.5 2.03v4.729c0 1.121-1.12 2.031-2.5 2.031s-2.5-.91-2.5-2.031v-8.85c0-1.119-1.12-2.029-2.5-2.029s-2.5.91-2.5 2.029v6.76c-.01 1.121-1.13 2.021-2.5 2.021-1.38 0-2.5-.91-2.5-2.03V34.8c0-1.12-1.12-2.029-2.5-2.029s-2.5.909-2.5 2.029v.74c0 1.119-1.12 2.039-2.5 2.039s-2.5-.92-2.5-2.039v-5.49c0-1.12-1.12-2.04-2.5-2.04s-2.5.92-2.5 2.04v.68c0 1.131-1.12 2.041-2.5 2.041s-2.5-.91-2.5-2.041v-4.921c0-1.119-1.12-2.029-2.5-2.029s-2.5.91-2.5 2.029v3.68c0 1.121-1.12 2.041-2.5 2.041s-2.5-.92-2.5-2.041V24.92c0-1.12-1.12-2.04-2.5-2.04s-2.5.92-2.5 2.04v11.19c0 1.129-1.12 2.039-2.5 2.039s-2.5-.91-2.5-2.039v-.371c0-1.119-1.12-2.029-2.5-2.029s-2.5.91-2.5 2.029v5.08c0 1.121-1.12 2.03-2.5 2.03s-2.5-.909-2.5-2.03v-9.08c0-1.129-1.12-2.039-2.5-2.039s-2.5.91-2.5 2.039V41.84c0 1.12-1.12 2.03-2.5 2.03s-2.5-.91-2.5-2.03v-5.181c0-1.129-1.12-2.039-2.5-2.039s-2.5.91-2.5 2.039v2.121c0 1.119-1.12 2.029-2.5 2.029s-2.5-.91-2.5-2.029V12.319c0-1.119 1.12-2.039 2.5-2.039s2.5.92 2.5 2.039v14.25c0 1.131 1.12 2.041 2.5 2.041s2.5-.91 2.5-2.041V15.38c0-1.12 1.12-2.03 2.5-2.03s2.5.91 2.5 2.03v.67c0 1.12 1.12 2.04 2.5 2.04s2.5-.92 2.5-2.04v-1.69c0-1.121 1.12-2.031 2.5-2.031s2.5.91 2.5 2.031v3.899c0 1.12 1.12 2.03 2.5 2.03s2.5-.91 2.5-2.03v-8.6c0-1.129 1.12-2.039 2.5-2.039s2.5.91 2.5 2.039v.631c0 1.13 1.12 2.039 2.5 2.039s2.5-.909 2.5-2.039V3.04c0-1.131 1.12-2.04 2.5-2.04s2.5.909 2.5 2.04v1.01c0 1.13 1.12 2.04 2.5 2.04s2.5-.91 2.5-2.04v.23c0-1.131 1.12-2.041 2.5-2.041s2.5.91 2.5 2.041v10.85c0 1.12 1.12 2.029 2.5 2.029s2.5-.909 2.5-2.029V9.079c0-1.119 1.12-2.029 2.5-2.029s2.5.91 2.5 2.029v9.181c0 1.12 1.12 2.03 2.5 2.03s2.5-.91 2.5-2.03v-4.41c0-1.12 1.12-2.03 2.5-2.03s2.5.91 2.5 2.03v3.69c0 1.13 1.12 2.039 2.5 2.039s2.5-.909 2.5-2.039v-1.59c0-1.121 1.12-2.03 2.5-2.03s2.5.909 2.5 2.03v7.56c0 1.13 1.12 2.04 2.5 2.04s2.5-.91 2.5-2.04v-10.3c0-1.12 1.12-2.03 2.5-2.03s2.49.899 2.5 2.03v5.05c0 1.12 1.12 2.03 2.5 2.03s2.5-.91 2.5-2.03v-7.71c0-1.13 1.12-2.04 2.5-2.04s2.5.91 2.5 2.03v12.77c0 1.12 1.12 2.04 2.5 2.04s2.5-.909 2.5-2.04v-4.5c0-1.13 1.12-2.039 2.5-2.039s2.5.909 2.5 2.039v8.53c0 1.12 1.12 2.03 2.5 2.03s2.5-.91 2.5-2.03v-4.41c0-1.13 1.12-2.04 2.5-2.04s2.5.91 2.5 2.04v2.64c0 1.121 1.12 2.021 2.5 2.021s2.5-.91 2.5-2.03V16.94c0-1.121 1.12-2.031 2.5-2.031s2.5.91 2.5 2.031v1.609c0 1.13 1.12 2.04 2.5 2.04s2.5-.91 2.5-2.04v-6.74c0-1.119 1.12-2.029 2.5-2.029s2.5.91 2.5 2.029v9.061c0 1.13 1.12 2.039 2.5 2.039s2.5-.909 2.5-2.039V13.8c0-1.12 1.12-2.029 2.5-2.029s2.5.909 2.5 2.029v6.54c0-1.13 1.12-2.04 2.5-2.04s2.5.91 2.5 2.04v2.12c0 1.119 1.12 2.029 2.5 2.029s2.5-.91 2.5-2.029v-5.18c0-1.131 1.12-2.041 2.5-2.041s2.5.91 2.5 2.041v10.09c0 1.13 1.12 2.039 2.5 2.039s2.5-.909 2.5-2.039v-9.08c0-1.12 1.12-2.03 2.5-2.03s2.5.91 2.5 2.03v5.08c0 1.119 1.12 2.029 2.5 2.029s2.5-.91 2.5-2.029V23c0-1.13 1.12-2.04 2.5-2.04s2.5.91 2.5 2.04v11.19c0 1.129 1.12 2.039 2.5 2.039s2.5-.91 2.5-2.039v-4.57c0-1.12 1.12-2.03 2.5-2.03s2.5.91 2.5 2.03v3.68c0 1.12 1.12 2.04 2.5 2.04s2.5-.92 2.5-2.04v-4.92c0-1.13 1.12-2.04 2.5-2.04s2.5.91 2.5 2.04v.68c0 1.12 1.12 2.04 2.5 2.04s2.5-.92 2.5-2.04v-5.49c0-1.119 1.12-2.029 2.5-2.029 1.381 0 2.5.91 2.5 2.029v.74c0 1.12 1.121 2.03 2.5 2.03 1.381 0 2.5-.91 2.5-2.03V18.8c0-1.12 1.121-2.029 2.5-2.029 1.381 0 2.49.899 2.5 2.02v6.76c0 1.12 1.121 2.04 2.5 2.04 1.381 0 2.5-.92 2.5-2.04V16.7c0-1.121 1.121-2.03 2.5-2.03 1.381 0 2.5.909 2.5 2.03v4.729c0 1.12 1.121 2.03 2.5 2.03 1.381 0 2.5-.91 2.5-2.03V19.45c0-1.131 1.121-2.041 2.5-2.041 1.15 0 2.11.631 2.41 1.49v7.851c0 1.13 1.141 2.04 2.54 2.04 1.41 0 2.55-.91 2.55-2.04v-4.64c0-1.131 1.121-2.041 2.5-2.041 1.381 0 2.5.91 2.5 2.041v.93c0 1.119 1.121 2.029 2.5 2.029 1.381 0 2.5-.91 2.5-2.029v-9.19c0-1.13 1.121-2.04 2.5-2.04 1.381 0 2.5.91 2.5 2.04v2.07c0 1.13 1.121 2.04 2.5 2.04 1.381 0 2.5-.91 2.5-2.04V9.73c0-1.13 1.121-2.039 2.5-2.039 1.381 0 2.5.909 2.5 2.039v12.23c0 1.109 1.121 2.02 2.5 2.02 1.381 0 2.5-.91 2.5-2.029v-6.24c0-1.12 1.121-2.03 2.5-2.03 1.381 0 2.5.91 2.5 2.03v8.859c0 1.121 1.121 2.03 2.5 2.03 1.381 0 2.5-.909 2.5-2.03v-3.73c0-1.12 1.121-2.03 2.5-2.03 1.381 0 2.5.91 2.5 2.03v.399c0 1.11 1.121 2.021 2.5 2.021 1.381 0 2.5-.91 2.5-2.04v-2.37c0-1.12 1.121-2.03 2.5-2.03 1.381 0 2.5.91 2.5 2.03v6.39c0-1.119 1.121-2.029 2.5-2.029 1.381 0 2.5.91 2.5 2.029v7.07c0 1.131 1.121 2.04 2.5 2.04 1.381 0 2.5-.909 2.5-2.04v-9.06c0-1.12 1.121-2.03 2.5-2.03 1.381 0 2.5.91 2.5 2.03v6.739c0 1.131 1.121 2.041 2.5 2.041 1.381 0 2.5-.91 2.5-2.041V28.38c0-1.12 1.121-2.03 2.5-2.03 1.381 0 2.5.91 2.5 2.03V37c0 1.12 1.121 2.03 2.5 2.03 1.381 0 2.49-.9 2.5-2.021v-2.64c0-1.131 1.121-2.041 2.5-2.041 1.381 0 2.5.91 2.5 2.041v4.41c0 1.119 1.121 2.029 2.5 2.029 1.381 0 2.5-.91 2.5-2.029v-8.53c0-1.13 1.121-2.04 2.5-2.04 1.381 0 2.5.91 2.5 2.04v4.5c0 1.13 1.121 2.03 2.5 2.03 1.381 0 2.5-.91 2.5-2.03v-12.76c0-1.129 1.121-2.039 2.5-2.039 1.381 0 2.5.91 2.5 2.039V29.7c0 1.119 1.121 2.029 2.5 2.029 1.381 0 2.5-.91 2.5-2.029v-5.051c0-1.129 1.121-2.029 2.5-2.029 1.381 0 2.5.91 2.5 2.029V34.95c0 1.129 1.121 2.039 2.5 2.039 1.381 0 2.5-.91 2.5-2.039v-7.56c0-1.119 1.121-2.029 2.5-2.029 1.381 0 2.5.91 2.5 2.029v1.59c0 1.131 1.121 2.041 2.5 2.041 1.381 0 2.5-.91 2.5-2.041v-3.69c0-1.12 1.121-2.03 2.5-2.03 1.381 0 2.5.91 2.5 2.03v4.41c0 1.119 1.121 2.029 2.5 2.029 1.381 0 2.5-.91 2.5-2.029v-9.18c0-1.121 1.121-2.031 2.5-2.031 1.381 0 2.5.91 2.5 2.031v6.049c0 1.121 1.121 2.03 2.5 2.03 1.381 0 2.5-.909 2.5-2.03V15.72c0-1.13 1.121-2.04 2.5-2.04 1.381 0 2.5.91 2.5 2.04v-.23c0 1.131 1.121 2.041 2.5 2.041 1.381 0 2.5-.91 2.5-2.041v-1.01c0-1.13 1.121-2.039 2.5-2.039 1.381 0 2.5.909 2.5 2.039v7.25c0 1.131 1.121 2.041 2.5 2.041 1.381 0 2.5-.91 2.5-2.041v-.63c0-1.13 1.121-2.04 2.5-2.04 1.381 0 2.5.91 2.5 2.04v8.6c0 1.119 1.121 2.029 2.5 2.029 1.381 0 2.5-.91 2.5-2.029v-3.9c0-1.12 1.121-2.029 2.5-2.029 1.381 0 2.5.909 2.5 2.029v1.689c0 1.121 1.121 2.041 2.5 2.041 1.381 0 2.5-.92 2.5-2.041v-.67c0-1.119 1.121-2.029 2.5-2.029 1.381 0 2.5.91 2.5 2.029v11.19c0 1.13 1.121 2.04 2.5 2.04 1.381 0 2.5-.91 2.5-2.04V23.76c0-1.12 1.121-2.04 2.5-2.04 1.381 0 2.5.92 2.5 2.04z" class="Fill-nm5ybd-0 jeDmiu" opacity="1"/><path d="M558.321 21.725c-1.381 0-2.5.911-2.5 2.035v14.253c0 1.125-1.119 2.035-2.5 2.035s-2.5-.91-2.5-2.035V26.82c0-1.124-1.119-2.035-2.5-2.035s-2.5.911-2.5 2.035v.671c0 1.123-1.119 2.035-2.5 2.035s-2.5-.912-2.5-2.035v-1.688c0-1.124-1.119-2.035-2.5-2.035s-2.5.911-2.5 2.035v3.894c0 1.123-1.119 2.034-2.5 2.034s-2.5-.911-2.5-2.034v-8.6c0-1.123-1.119-2.035-2.5-2.035s-2.5.912-2.5 2.035v.637c0 1.123-1.119 2.034-2.5 2.034s-2.5-.911-2.5-2.034v-7.258c0-1.125-1.119-2.035-2.5-2.035s-2.5.91-2.5 2.035v1.018c0 1.123-1.119 2.034-2.5 2.034s-2.5-.911-2.5-2.034v.225c0-1.123-1.119-2.035-2.5-2.035s-2.5.912-2.5 2.035v10.848c0 1.125-1.119 2.035-2.5 2.035s-2.5-.91-2.5-2.035v-6.041c0-1.124-1.119-2.035-2.5-2.035s-2.5.911-2.5 2.035v9.172c0 1.123-1.119 2.034-2.5 2.034s-2.5-.911-2.5-2.034v-4.402c0-1.123-1.119-2.035-2.5-2.035s-2.5.912-2.5 2.035v3.688c0 1.124-1.119 2.035-2.5 2.035s-2.5-.911-2.5-2.035v-1.59c0-1.124-1.119-2.034-2.5-2.034s-2.5.91-2.5 2.034v7.56c0 1.125-1.119 2.035-2.5 2.035s-2.5-.91-2.5-2.035V24.649c0-1.123-1.119-2.034-2.5-2.034-1.379 0-2.496.909-2.5 2.03v5.051c0 1.123-1.119 2.034-2.5 2.034s-2.5-.911-2.5-2.034v-7.709c0-1.124-1.119-2.035-2.5-2.035s-2.498.91-2.5 2.033V34.75c0 1.124-1.119 2.034-2.5 2.034s-2.498-.909-2.5-2.031v-4.506c0-1.123-1.119-2.035-2.5-2.035s-2.5.912-2.5 2.035v8.53c0 1.124-1.119 2.035-2.5 2.035s-2.5-.911-2.5-2.035v-4.409c0-1.124-1.119-2.035-2.5-2.035s-2.5.911-2.5 2.035v2.639c-.008 1.119-1.123 2.025-2.5 2.025-1.381 0-2.5-.912-2.5-2.035v-8.615c0-1.123-1.119-2.035-2.5-2.035s-2.5.912-2.5 2.035v1.611c0 1.123-1.119 2.035-2.5 2.035s-2.5-.912-2.5-2.035v-6.741c0-1.124-1.119-2.034-2.5-2.034s-2.5.91-2.5 2.034v9.06c0 1.124-1.119 2.035-2.5 2.035s-2.5-.911-2.5-2.035v-7.066c0-1.125-1.119-2.035-2.5-2.035s-2.5.91-2.5 2.035v-6.395c0-1.124-1.119-2.035-2.5-2.035s-2.5.911-2.5 2.035v2.374c0 1.124-1.121 2.035-2.502 2.035-1.375 0-2.492-.905-2.498-2.024v-.393c0-1.123-1.121-2.035-2.5-2.035-1.381 0-2.5.912-2.5 2.035v3.723c0 1.125-1.119 2.035-2.5 2.035s-2.5-.91-2.5-2.035v-8.852c0-1.125-1.119-2.035-2.5-2.035s-2.5.91-2.5 2.035v6.232c0 1.123-1.119 2.034-2.502 2.034-1.375 0-2.492-.905-2.498-2.024V9.728c0-1.125-1.119-2.035-2.5-2.035s-2.5.91-2.5 2.035v6.197c0 1.124-1.119 2.035-2.5 2.035s-2.5-.911-2.5-2.035v-2.077c0-1.124-1.119-2.035-2.5-2.035s-2.5.911-2.5 2.035v9.192c0 1.123-1.119 2.035-2.5 2.035s-2.5-.912-2.5-2.035v-.932c0-1.124-1.119-2.035-2.5-2.035s-2.5.911-2.5 2.035v4.645c0 1.123-1.141 2.035-2.547 2.035s-2.546-.912-2.546-2.035v-7.85c-.292-.86-1.259-1.493-2.407-1.493-1.381 0-2.5.911-2.5 2.034v1.984c0 1.125-1.12 2.035-2.5 2.035-1.381 0-2.5-.91-2.5-2.035v-4.727c0-1.123-1.12-2.035-2.5-2.035-1.381 0-2.5.912-2.5 2.035v-1.115l-.002-.01v9.973c0 1.124-1.119 2.035-2.5 2.035-1.38 0-2.5-.911-2.5-2.035V18.79c-.006-1.119-1.123-2.024-2.498-2.024-1.381 0-2.5.91-2.5 2.035v5.506c0 1.123-1.12 2.035-2.5 2.035-1.381 0-2.5-.912-2.5-2.035v-.736c0-1.125-1.12-2.035-2.502-2.035-1.38 0-2.499.91-2.499 2.035v5.49c0 1.123-1.12 2.034-2.5 2.034-1.381 0-2.5-.911-2.5-2.034v-.684c0-1.125-1.12-2.035-2.5-2.035-1.381 0-2.5.91-2.5 2.035V33.3c0 1.124-1.119 2.035-2.5 2.035-1.38 0-2.5-.911-2.5-2.035v-3.68c0-1.123-1.119-2.035-2.5-2.035-1.38 0-2.5.912-2.5 2.035v4.57c0 1.125-1.119 2.035-2.5 2.035-1.38 0-2.5-.91-2.5-2.035V22.999c0-1.125-1.119-2.035-2.5-2.035-1.38 0-2.5.91-2.5 2.035v.367c0 1.124-1.119 2.035-2.5 2.035-1.38 0-2.5-.911-2.5-2.035v-5.074c0-1.123-1.119-2.035-2.5-2.035-1.38 0-2.5.912-2.5 2.035v9.081c0 1.124-1.119 2.035-2.5 2.035-1.38 0-2.5-.911-2.5-2.035V17.274c0-1.123-1.119-2.035-2.5-2.035-1.38 0-2.5.912-2.5 2.035v5.182c0 1.123-1.119 2.034-2.5 2.034-1.38 0-2.5-.911-2.5-2.034v-2.121c0-1.123-1.119-2.035-2.5-2.035-1.38 0-2.5.912-2.5 2.035v-6.53c0-1.124-1.119-2.035-2.5-2.035s-2.5.911-2.5 2.035v7.067c0 1.123-1.12 2.035-2.5 2.035-1.381 0-2.5-.912-2.5-2.035v-9.061c0-1.123-1.12-2.035-2.5-2.035-1.381 0-2.5.912-2.5 2.035v6.742c0 1.123-1.119 2.034-2.5 2.034-1.38 0-2.5-.911-2.5-2.034v-1.611c0-1.125-1.119-2.035-2.5-2.035-1.38 0-2.5.91-2.5 2.035v8.614c0 1.124-1.12 2.035-2.5 2.035-1.377 0-2.494-.906-2.5-2.025v-2.638c0-1.125-1.119-2.035-2.5-2.035-1.38 0-2.5.91-2.5 2.035v4.408c0 1.125-1.119 2.035-2.5 2.035-1.38 0-2.5-.91-2.5-2.035v-8.529c0-1.124-1.119-2.035-2.5-2.035-1.38 0-2.5.911-2.5 2.035v4.505c-.002 1.122-1.121 2.032-2.5 2.032-1.38 0-2.5-.911-2.5-2.035V10.544c-.002-1.122-1.121-2.031-2.5-2.031-1.38 0-2.5.91-2.5 2.035v7.707c0 1.125-1.119 2.035-2.5 2.035s-2.5-.91-2.5-2.035v-5.05c-.003-1.121-1.121-2.03-2.5-2.03-1.38 0-2.5.912-2.5 2.035v10.303c0 1.123-1.119 2.035-2.5 2.035-1.38 0-2.5-.912-2.5-2.035v-7.561c0-1.123-1.119-2.035-2.5-2.035-1.38 0-2.5.912-2.5 2.035v1.59c0 1.125-1.119 2.035-2.5 2.035-1.38 0-2.5-.91-2.5-2.035v-3.688c0-1.124-1.119-2.035-2.5-2.035-1.38 0-2.5.911-2.5 2.035v4.4c0 1.125-1.119 2.035-2.5 2.035-1.38 0-2.5-.91-2.5-2.035v-9.17c0-1.125-1.119-2.035-2.5-2.035-1.38 0-2.5.91-2.5 2.035v6.041c0 1.124-1.119 2.035-2.5 2.035s-2.5-.911-2.5-2.035V4.278c0-1.124-1.119-2.035-2.5-2.035s-2.5.911-2.5 2.035v-.226c0 1.125-1.12 2.035-2.5 2.035s-2.5-.91-2.5-2.035V3.035c0-1.124-1.12-2.035-2.5-2.035s-2.5.911-2.5 2.035v7.258c0 1.124-1.12 2.034-2.5 2.034s-2.5-.91-2.5-2.034v-.636c0-1.125-1.12-2.035-2.5-2.035s-2.5.91-2.5 2.035v8.598c0 1.125-1.12 2.035-2.5 2.035s-2.5-.91-2.5-2.035v-3.893c0-1.123-1.12-2.035-2.5-2.035s-2.5.912-2.5 2.035v1.688c0 1.124-1.12 2.034-2.5 2.034s-2.5-.91-2.5-2.034v-.67c0-1.123-1.12-2.035-2.5-2.035s-2.5.912-2.5 2.035v11.193c0 1.123-1.12 2.035-2.5 2.035s-2.5-.912-2.5-2.035V12.319c0-1.123-1.12-2.035-2.5-2.035s-2.5.912-2.5 2.035v26.456c0 1.124 1.12 2.035 2.5 2.035s2.5-.911 2.5-2.035v-2.12c0-1.123 1.12-2.035 2.5-2.035s2.5.912 2.5 2.035v5.181c0 1.124 1.12 2.035 2.5 2.035s2.5-.911 2.5-2.035V31.737c0-1.123 1.12-2.035 2.5-2.035s2.5.912 2.5 2.035v9.081c0 1.124 1.12 2.035 2.5 2.035s2.5-.911 2.5-2.035v-5.074c0-1.124 1.12-2.035 2.5-2.035s2.5.911 2.5 2.035v.368c0 1.124 1.12 2.035 2.5 2.035s2.5-.911 2.5-2.035V24.919c0-1.123 1.12-2.034 2.5-2.034s2.5.911 2.5 2.034v4.572c0 1.123 1.12 2.035 2.5 2.035s2.5-.912 2.5-2.035V25.81c0-1.123 1.12-2.035 2.5-2.035s2.5.912 2.5 2.035v4.924c0 1.124 1.119 2.035 2.5 2.035s2.5-.911 2.5-2.035v-.684c0-1.124 1.119-2.035 2.5-2.035s2.5.911 2.5 2.035v5.49c0 1.124 1.119 2.035 2.5 2.035s2.5-.911 2.5-2.035v-.736c0-1.123 1.12-2.035 2.5-2.035 1.381 0 2.5.912 2.5 2.035v5.506c0 1.124 1.12 2.035 2.5 2.035 1.376 0 2.493-.906 2.5-2.025v-6.759c0-1.124 1.12-2.034 2.5-2.034s2.5.91 2.5 2.034v9.964-1.116c0 1.124 1.12 2.035 2.5 2.035 1.381 0 2.5-.911 2.5-2.035v-4.728c0-1.123 1.12-2.035 2.5-2.035 1.381 0 2.5.912 2.5 2.035v1.985c0 1.124 1.12 2.034 2.5 2.034 1.15 0 2.116-.633 2.408-1.493v-7.849c0-1.124 1.14-2.035 2.545-2.035 1.406 0 2.546.911 2.546 2.035v4.645c0 1.123 1.12 2.035 2.5 2.035 1.381 0 2.5-.912 2.5-2.035v-.932c0-1.124 1.12-2.035 2.5-2.035 1.381 0 2.5.911 2.5 2.035v9.191c0 1.125 1.12 2.035 2.5 2.035 1.381 0 2.5-.91 2.5-2.035v-2.076c0-1.125 1.12-2.035 2.5-2.035 1.381 0 2.5.91 2.5 2.035v6.197c0 1.123 1.12 2.035 2.5 2.035 1.381 0 2.5-.912 2.5-2.035V37.155c.006-1.119 1.123-2.025 2.5-2.025 1.381 0 2.5.912 2.5 2.035v6.232c0 1.123 1.12 2.035 2.5 2.035 1.381 0 2.5-.912 2.5-2.035v-8.854c0-1.123 1.12-2.034 2.5-2.034 1.381 0 2.5.911 2.5 2.034v3.724c0 1.124 1.119 2.035 2.5 2.035 1.38 0 2.5-.911 2.5-2.035v-.392c.006-1.119 1.123-2.025 2.5-2.025 1.38 0 2.5.912 2.5 2.035v2.375c0 1.123 1.119 2.035 2.5 2.035s2.5-.912 2.5-2.035v6.53c0 1.124 1.12 2.034 2.5 2.034 1.381 0 2.5-.91 2.5-2.034V32.538c0-1.124 1.12-2.035 2.5-2.035 1.381 0 2.5.911 2.5 2.035V43.73c0 1.124 1.12 2.035 2.5 2.035 1.381 0 2.5-.911 2.5-2.035v-.67c0-1.123 1.12-2.034 2.5-2.034 1.381 0 2.5.911 2.5 2.034v1.688c0 1.124 1.12 2.035 2.5 2.035 1.381 0 2.5-.911 2.5-2.035v-3.893c0-1.124 1.12-2.035 2.5-2.035 1.381 0 2.5.911 2.5 2.035v8.599c0 1.123 1.12 2.035 2.5 2.035 1.381 0 2.5-.912 2.5-2.035v-.637c0-1.123 1.12-2.034 2.5-2.034 1.381 0 2.5.911 2.5 2.034v7.258c0 1.125 1.12 2.035 2.5 2.035 1.381 0 2.5-.91 2.5-2.035v-1.018c0-1.123 1.12-2.035 2.5-2.035s2.5.912 2.5 2.035v-.225c0 1.123 1.119 2.035 2.5 2.035 1.38 0 2.5-.912 2.5-2.035V43.985c0-1.125 1.119-2.035 2.5-2.035 1.38 0 2.5.91 2.5 2.035v6.041c0 1.123 1.119 2.035 2.499 2.035 1.382 0 2.502-.912 2.502-2.035v-9.171c0-1.124 1.119-2.035 2.5-2.035 1.38 0 2.5.911 2.5 2.035v4.401c0 1.123 1.119 2.035 2.5 2.035 1.38 0 2.5-.912 2.5-2.035v-3.688c0-1.124 1.119-2.035 2.5-2.035 1.38 0 2.5.911 2.5 2.035v1.59c0 1.124 1.119 2.035 2.5 2.035 1.38 0 2.5-.911 2.5-2.035v-7.56c0-1.125 1.119-2.035 2.5-2.035 1.38 0 2.5.91 2.5 2.035v10.303c0 1.123 1.119 2.035 2.5 2.035 1.378 0 2.496-.91 2.498-2.031v-5.05c0-1.124 1.12-2.035 2.501-2.035s2.501.911 2.501 2.035v7.708c0 1.125 1.119 2.035 2.5 2.035 1.379 0 2.498-.91 2.498-2.033V35.801c0-1.124 1.121-2.034 2.502-2.034 1.379 0 2.498.909 2.5 2.031v4.506c0 1.123 1.119 2.035 2.5 2.035s2.5-.912 2.5-2.035v-8.53c0-1.124 1.119-2.034 2.5-2.034s2.5.91 2.5 2.034v4.409c0 1.123 1.119 2.035 2.5 2.035s2.5-.912 2.5-2.035v-2.639c.006-1.119 1.123-2.025 2.5-2.025 1.379 0 2.5.912 2.5 2.035v8.615c0 1.123 1.119 2.035 2.5 2.035s2.5-.912 2.5-2.035v-1.611c0-1.123 1.119-2.035 2.5-2.035s2.5.912 2.5 2.035v6.74c0 1.125 1.119 2.035 2.5 2.035 1.379 0 2.5-.91 2.5-2.035v-9.059c0-1.124 1.119-2.035 2.5-2.035 1.379 0 2.5.911 2.5 2.035v7.066c0 1.124 1.119 2.035 2.5 2.035s2.5-.911 2.5-2.035V51.7c0 1.123 1.119 2.035 2.5 2.035s2.5-.912 2.5-2.035v-2.375c0-1.123 1.119-2.035 2.5-2.035 1.377 0 2.494.906 2.5 2.025v.393c0 1.123 1.119 2.035 2.5 2.035s2.5-.912 2.5-2.035v-3.723c0-1.125 1.119-2.035 2.5-2.035s2.5.91 2.5 2.035v8.852c0 1.125 1.119 2.035 2.5 2.035s2.5-.91 2.5-2.035v-6.232c0-1.123 1.119-2.034 2.5-2.034 1.377 0 2.492.905 2.5 2.024v12.229c0 1.125 1.119 2.035 2.5 2.035s2.5-.91 2.5-2.035v-6.197c0-1.123 1.119-2.035 2.5-2.035s2.5.912 2.5 2.035v2.078c0 1.123 1.119 2.033 2.5 2.033s2.5-.91 2.5-2.033v-9.193c0-1.123 1.119-2.035 2.5-2.035s2.5.912 2.5 2.035v.932c0 1.125 1.119 2.035 2.5 2.035s2.5-.91 2.5-2.035v-4.645c0-1.123 1.139-2.035 2.545-2.035s2.547.912 2.547 2.035v7.85c.291.859 1.258 1.494 2.408 1.494 1.381 0 2.5-.912 2.5-2.035v-1.984c0-1.125 1.119-2.035 2.5-2.035s2.5.91 2.5 2.035v4.727c0 1.123 1.119 2.035 2.5 2.035s2.5-.912 2.5-2.035v1.125-9.973c0-1.124 1.119-2.035 2.5-2.035s2.5.911 2.5 2.035v6.758c.006 1.119 1.123 2.025 2.5 2.025 1.381 0 2.5-.91 2.5-2.035v-5.506c0-1.123 1.119-2.035 2.5-2.035s2.5.912 2.5 2.035v.736c0 1.125 1.119 2.035 2.5 2.035s2.5-.91 2.5-2.035v-5.49c0-1.123 1.119-2.035 2.5-2.035s2.5.912 2.5 2.035v.685c0 1.124 1.119 2.034 2.5 2.034s2.5-.91 2.5-2.034V39.87v.006-2.626c0-1.124 1.119-2.035 2.5-2.035s2.5.911 2.5 2.035v3.681c0 1.123 1.119 2.035 2.5 2.035s2.5-.912 2.5-2.035v-4.57c0-1.125 1.119-2.035 2.5-2.035s2.5.91 2.5 2.035v11.191c0 1.125 1.119 2.035 2.5 2.035s2.5-.91 2.5-2.035v-.367c0-1.125 1.119-2.035 2.5-2.035s2.5.91 2.5 2.035v5.074c0 1.123 1.119 2.035 2.5 2.035s2.5-.912 2.5-2.035v-9.082c0-1.123 1.119-2.034 2.5-2.034s2.5.911 2.5 2.034v10.1c0 1.123 1.119 2.035 2.5 2.035s2.5-.912 2.5-2.035v-5.182c0-1.123 1.119-2.034 2.5-2.034s2.5.911 2.5 2.034v2.121c0 1.123 1.119 2.035 2.5 2.035s2.5-.912 2.5-2.035V23.76c.001-1.124-1.118-2.035-2.499-2.035z" class="Outlines-zam9bn-0 hStijO" transform="translate(0, 0) translate(-328.31996154785156, -31.929502487182617) scale(1, 1) translate(328.31996154785156, 31.929502487182617) rotate(0, 328.31996154785156, 31.929502487182617) skewX(0) skewY(0) "/><g class="Fill-sc-1losdxo-0 frsnQi" opacity="1"><path d="M593.19 143.528l-.537-.056.073-.389a8.703 8.703 0 0 0 .171-1.619c0-.961-.179-1.953-.525-2.951l-.09-.253.287-.159c1.506-.832 2.366-2.093 2.366-3.459 0-2.397-2.684-4.35-5.985-4.35-.644 0-1.291.079-1.916.232l-.603.146-.108-.452c-.4-1.638-2.349-2.826-4.634-2.826-1.786 0-3.397.731-4.206 1.91l-.154.227-.607-.019c-.094-.004-.192-.011-.293-.011-9.08 0-16.465 5.367-16.465 11.963v.462l-.623.007a9.93 9.93 0 0 0-4.475.481l-.472.163-.248-.335c-1.104-1.518-3.254-2.462-5.61-2.462-3.502 0-6.351 2.07-6.351 4.613 0 .399.074.796.218 1.188h55.4c-1.08-1.105-2.75-1.856-4.613-2.051z"/><path d="M542.956 75.454c-.924 0-1.816.214-2.582.618l-.639.337-.207-.555c-.73-1.942-3.176-3.302-5.945-3.302h-.439l-.168-.309c-1.043-3.486-5.362-6.017-10.276-6.017-5.801 0-10.521 3.43-10.521 7.645 0 .345.039.703.127 1.129l.091.451-.623.003c-3.154.016-5.726 1.721-6.078 3.952h41.537c.094-.263.139-.509.139-.747-.002-1.766-1.983-3.205-4.416-3.205z"/><path d="M364.922 87.791h8.17c-.221-2.582-3.151-4.611-6.723-4.611-.388 0-.783.027-1.209.083l-.593.079-.047-.438c-.387-3.614-4.6-6.446-9.59-6.446-4.818 0-8.918 2.618-9.541 6.088l-.094.525-.668-.218a10.384 10.384 0 0 0-3.212-.5c-2.972 0-5.659 1.197-7.015 3.125l-.236.338-.473-.155a4.981 4.981 0 0 0-1.582-.255c-1.926 0-3.524 1.036-3.793 2.386h36.606v-.001z"/><path d="M147.319 108.793c-.924 0-1.816.214-2.583.618l-.638.337-.208-.555c-.729-1.942-3.174-3.302-5.945-3.302h-.439l-.169-.309c-1.042-3.485-5.362-6.017-10.276-6.017-5.802 0-10.521 3.43-10.521 7.645 0 .344.041.703.127 1.129l.092.451-.626.003c-3.151.016-5.722 1.721-6.077 3.952h41.536c.089-.24.136-.493.139-.748.002-1.766-1.978-3.204-4.412-3.204z"/><path d="M74.08 166.257h8.17c-.221-2.582-3.153-4.61-6.722-4.61-.389 0-.785.027-1.21.084l-.592.077-.047-.437c-.385-3.616-4.599-6.448-9.59-6.448-4.817 0-8.918 2.618-9.539 6.088l-.096.527-.668-.219a10.365 10.365 0 0 0-3.212-.501c-2.97 0-5.657 1.198-7.013 3.126l-.236.338-.475-.156a5.027 5.027 0 0 0-1.581-.255c-1.927 0-3.525 1.039-3.793 2.386H74.08z"/><path d="M74.563 78.969l-.535-.056.073-.391c.115-.614.169-1.13.169-1.619 0-.96-.177-1.952-.526-2.949l-.089-.254.287-.158c1.506-.833 2.37-2.094 2.37-3.459 0-2.399-2.686-4.352-5.986-4.352-.646 0-1.292.079-1.919.233l-.599.146-.11-.452c-.4-1.638-2.348-2.825-4.632-2.825-1.788 0-3.399.73-4.207 1.91l-.159.229-.604-.02c-.097-.005-.194-.011-.293-.011-9.08 0-16.465 5.366-16.465 11.962v.463l-.623.007a9.99 9.99 0 0 0-4.476.479l-.472.165-.245-.337c-1.106-1.517-3.257-2.459-5.613-2.459-3.5 0-6.349 2.069-6.349 4.612 0 .397.073.796.216 1.187h55.399c-1.079-1.107-2.747-1.858-4.612-2.051z"/></g><path d="M584.09 145.581h-41.688a3.442 3.442 0 0 1-.218-1.188c0-2.543 2.849-4.612 6.351-4.612 2.356 0 4.506.943 5.611 2.461l.247.335.472-.163a9.93 9.93 0 0 1 4.475-.481l.623-.007v-.462c0-6.596 7.385-11.963 16.465-11.963.101 0 .199.007.293.011l.607.02.154-.228c.809-1.179 2.42-1.91 4.207-1.91 2.284 0 4.231 1.188 4.633 2.826l.108.452.603-.146a8.037 8.037 0 0 1 1.916-.232c3.303 0 5.985 1.951 5.985 4.35 0 1.366-.86 2.627-2.366 3.459l-.287.159.09.253c.348.998.525 1.99.525 2.951a8.78 8.78 0 0 1-.17 1.619l-.074.389.537.056c1.862.194 3.532.945 4.612 2.054l-13.711-.003z" class="Outlines__Outline-qg192r-0 frkXrL" opacity="1" transform="translate(0, 0) translate(-569.9925537109375, -136.489013671875) scale(1, 1) translate(569.9925537109375, 136.489013671875) rotate(0, 569.9925537109375, 136.489013671875) skewX(0) skewY(0) "/><path d="M529.53 79.408h-23.836c.354-2.231 2.924-3.938 6.078-3.952l.623-.003-.091-.451a5.494 5.494 0 0 1-.127-1.129c0-4.215 4.72-7.645 10.521-7.645 4.914 0 9.233 2.529 10.276 6.017l.168.309h.439c2.771 0 5.215 1.358 5.945 3.302l.207.555.639-.337a5.547 5.547 0 0 1 2.582-.618c2.434 0 4.414 1.438 4.414 3.207 0 .238-.045.484-.14.747l-17.698-.002z" class="Outlines__Outline-qg192r-0 frkXrL" opacity="1" transform="translate(0, 0) translate(-526.531005859375, -72.81900787353516) scale(1, 1) translate(526.531005859375, 72.81900787353516) rotate(0, 526.531005859375, 72.81900787353516) skewX(0) skewY(0) "/><path d="M332.112 85.406c.539 0 1.07.085 1.582.255l.473.155.236-.338c1.354-1.928 4.043-3.125 7.015-3.125 1.108 0 2.188.168 3.212.5l.668.218.094-.525c.623-3.47 4.724-6.088 9.541-6.088 4.99 0 9.203 2.832 9.59 6.446l.047.438.593-.079a9.232 9.232 0 0 1 1.209-.083c3.569 0 6.502 2.029 6.724 4.611h-44.775c.266-1.349 1.866-2.385 3.791-2.385z" class="Outlines__Outline-qg192r-0 frkXrL" opacity="1" transform="translate(0, 0) translate(-350.70848083496094, -82.1245002746582) scale(1, 1) translate(350.70848083496094, 82.1245002746582) rotate(0, 350.70848083496094, 82.1245002746582) skewX(0) skewY(0) "/><path d="M133.894 112.747h-23.836c.355-2.231 2.925-3.938 6.077-3.952l.626-.003-.092-.451a5.565 5.565 0 0 1-.127-1.129c0-4.215 4.719-7.645 10.521-7.645 4.914 0 9.235 2.53 10.276 6.017l.169.309h.439c2.771 0 5.216 1.358 5.945 3.302l.208.555.638-.337a5.551 5.551 0 0 1 2.583-.618c2.434 0 4.415 1.438 4.415 3.206 0 .24-.046.485-.139.748l-17.703-.002z" class="Outlines__Outline-qg192r-0 frkXrL" opacity="1" transform="translate(0, 0) translate(-130.8969955444336, -106.15801239013672) scale(1, 1) translate(130.8969955444336, 106.15801239013672) rotate(0, 130.8969955444336, 106.15801239013672) skewX(0) skewY(0) "/><path d="M41.27 163.871c.537 0 1.069.086 1.581.255l.475.156.236-.338c1.356-1.928 4.043-3.126 7.013-3.126 1.109 0 2.189.168 3.212.501l.668.219.096-.527c.621-3.47 4.722-6.088 9.539-6.088 4.991 0 9.205 2.832 9.59 6.448l.047.437.592-.077a9.067 9.067 0 0 1 1.21-.084c3.569 0 6.5 2.028 6.722 4.61H37.477c.268-1.347 1.866-2.386 3.793-2.386z" class="Outlines__Outline-qg192r-0 frkXrL" opacity="1" transform="translate(0, 0) translate(-59.864004135131836, -160.59001922607422) scale(1, 1) translate(59.864004135131836, 160.59001922607422) rotate(0, 59.864004135131836, 160.59001922607422) skewX(0) skewY(0) "/><path d="M65.465 81.021H23.776a3.411 3.411 0 0 1-.216-1.187c0-2.543 2.848-4.612 6.349-4.612 2.356 0 4.507.942 5.613 2.459l.245.337.472-.165a9.992 9.992 0 0 1 4.476-.479l.623-.007v-.463c0-6.596 7.386-11.962 16.465-11.962.099 0 .196.006.293.011l.604.02.157-.228c.807-1.18 2.419-1.91 4.207-1.91 2.285 0 4.232 1.188 4.632 2.825l.11.452.599-.146a8.108 8.108 0 0 1 1.919-.233c3.301 0 5.986 1.951 5.986 4.352 0 1.365-.864 2.626-2.37 3.459l-.285.156.089.254c.349.997.526 1.989.526 2.949 0 .489-.054 1.005-.169 1.619l-.073.391.535.056c1.865.193 3.533.944 4.613 2.052H65.465z" class="Outlines__Outline-qg192r-0 frkXrL" opacity="1" transform="translate(0, 0) translate(-51.367998123168945, -71.92800712585449) scale(1, 1) translate(51.367998123168945, 71.92800712585449) rotate(0, 51.367998123168945, 71.92800712585449) skewX(0) skewY(0) "/><path d="M325.008 119.547h6.821m-128.91-18.549h15.652M42.858 121.005h23.059m5.764 0h5.188m464.944-12.18h17.295m2.113 0h6.725M446.668 92.408h20.813m3.936 0h7.998M65.307 183.63h34.011m6.917 0h7.645m409.398-48.113h-21.983m-4.263 0h-7.494m104.73 48.704h-21.982m-4.264 0h-7.494M301.09 119.547h19.167" class="Outlines-oyuzwi-0 djtMVB" stroke-linecap="round" stroke-linejoin="round" stroke-dasharray="223.32693481445312px 223.32693481445312"/><path d="M485.452 172.78l-4.371 5.989-6.35-11.62-4.77 14.71-7.93-16.159-5.23 6.35s-1.29-4.71-2.5-9.51l11.689-15.41 19.462 25.65zm-54.871-46.99l-5.16 13.43-11.95-24.88-6.88 12.7-8.059-19.79-11.121 31.97-3.56-16.12 22.74-48.85zm-52.35 20.97v.01l-2.72 5.66-13.399-13.21-7.66 7.91-4.101-7.11-15.09 12.41-2.09-8.37 21.281-23.05 20.189 21.87zm-93.39-22.45l-5.09 8.03-13.07-16.74-5.6 15.009-8.39-22.67-12.68 19.21-3.59-8.909-8.21 21.67-5.07-20.03 29.55-50.45zm-97.3 20.68l-5.25 13.449-8.83-26.59-6.72 20.2-2.99-13.21-6.72 19.6s-1.9-6.449-4.17-14.409v-.011l17.12-36.77 17.56 37.741z" class="Peaks-bjxezp-0 kVgGWV" opacity="1"/><g class="Fill-j37f2w-0 itxKCd" opacity="1"><path d="M508.831 203.58c-13.6-.87-28.029-1.601-43.01-2.08l-15.619-33.561 4.1-5.399c1.21 4.8 2.5 9.51 2.5 9.51l5.23-6.35 7.93 16.159 4.77-14.71 6.35 11.62 4.371-5.989 23.378 30.8z"/><path d="M465.821 201.5a1179 1179 0 0 0-37.619-.61l-1.65-1.78-43.76-47.399v-.01l-4.561-4.931-3.59-3.89 9.21-19.78 3.56 16.12 11.121-31.97 8.06 19.79 6.88-12.7 11.95 24.88 5.159-13.43 19.621 42.149 15.619 33.561z"/><path d="M428.202 200.89c-1 0-2.01 0-3.01.01a985.43 985.43 0 0 0-30.131.521c-15.85.52-32.16 1.42-48.85 2.54-4.68.31-9.4.64-14.141.979l-21.379-36.52 22.48-24.36 2.09 8.37 15.09-12.41 4.101 7.11 7.66-7.91 13.399 13.21 2.72-5.66 48.32 52.34 1.651 1.78z"/><path d="M332.071 204.939c-17.25 1.261-34.87 2.7-52.82 4.181-1.84-.21-3.7-.42-5.56-.62-18.87-2.09-38.66-3.91-59.07-5.351l-17.83-38.29v-.01l26.35-44.97 5.07 20.03 8.21-21.67 3.59 8.909 12.68-19.21 8.39 22.67 5.6-15.01 13.07 16.74 5.09-8.03 47.23 80.631z"/><path d="M214.621 203.149c-12.78-.899-25.8-1.64-38.97-2.21-16.05-.689-32.34-1.12-48.71-1.22l25.92-55.689c2.27 7.96 4.17 14.409 4.17 14.409l6.72-19.6 2.99 13.21 6.72-20.2 8.83 26.59 5.25-13.449 9.25 19.859v.01l17.83 38.29z"/></g><g class="Shades__Fill-sc-1fw2xoy-0 GmSMi" opacity="1"><path d="M435.02 171.533v5.834m-33.654-36.346v13.73m0 3.464v5.831m16.97 5.68v13.728m-37.031-6.242v5.836m8.074-20.264v8.748m-32.464-9.779v13.728m1.076 13.736v5.831m-19.596-19.976v13.729m-17.477-17.038v3.621m-55.664 10.424v12.65m-30.712-30.427v12.653m-19.921-12.653v16.729m41.626-40.032v6.601m0 3.937v3.301m35.724 20.359v5.834m-43.008-48.219v8.187m26.053-1.099v13.206m-9.762 20.06v5.832m-30.712-27.45v5.833m-61.926 4.155v13.575m6.047-.712v7.353m-18.156-5.148v3.788m27.568 7.8v7.352m-27.568-10.213v7.575m315.796-9.277v8.748" class="Shades__Shade-sc-1fw2xoy-1 Shades__ShadeLine-sc-1fw2xoy-2 dZFFUE"/><path d="M465.993 147.135l8.738 20.011-4.772 14.715-7.929-16.16-5.229 6.351-2.5-9.511-4.304 4.96 5.462 11.736 6.163-4.013 8.337 15.293 7.471-11.752 4.336 7.176 11.18 17.37 15.885.269z" class="Shades__Shade-sc-1fw2xoy-1 foivMo"/><path d="M406.588 74.245l18.836 64.98-11.953-24.887-6.885 12.697-8.054-19.783-11.117 31.973-3.567-16.129-6.336 13.622 9.903 12.533 10.529-23.45 9.271 10.232 6.815-6.691 11.394 23.085 4.705-10.806 21.237 59.269 14.455.61z" class="Shades__Shade-sc-1fw2xoy-1 foivMo"/><path d="M354.456 121.005l28.331 30.699-3.754 10.18-16.921-14.749-7.658 9.475-6.536-6.49-14.746 12.117-4.433-13.373 4.433-4.802 2.092 8.365 15.084-12.408 4.106 7.116 7.392-7.454zm-22.385 83.934L252.565 69.098l27.439 62.311-.378.597-13.073-16.737-5.603 15.003-8.386-22.667-12.679 19.207-3.588-8.912-8.216 21.679-5.069-20.03-5.904 10.078 10.225 23.153 9.91-17.579 2.899 5.547 9.602-15.608 10.458 17.535 11.61-11.249 47.679 73.513zm-143.528-57.804l-18.562-39.883 14.293 48.137-1.776 3.433-8.824-26.593-6.723 20.198-2.988-13.202-6.723 19.597-4.31-14.934-3.977 8.539 8.287 16.161 5.976-10.107 3.735 6.017 6.723-12.071 8.824 13.274 3.535-4.391 15.583 41.839h13.005l-22.815-49.005z" class="Shades__Shade-sc-1fw2xoy-1 foivMo"/></g><g class="Outlines__Group-sc-1rlirdb-0 gTeYDG"><path d="M485.452 172.781l-4.371 5.988-6.35-11.62-4.771 14.71-7.93-16.158-5.23 6.35s-1.29-4.71-2.5-9.51l11.689-15.41 19.463 25.65z" stroke-linecap="round" stroke-linejoin="round" stroke-dasharray="123.71868896484375px 123.71868896484375"/><path d="M450.202 167.939l4.1-5.399" stroke-linecap="round" stroke-linejoin="round" stroke-dasharray="6.779326915740967px 6.779326915740967"/><path d="M508.831 203.58l-23.379-30.8" stroke-linecap="round" stroke-linejoin="round" stroke-dasharray="38.66804504394531px 38.66804504394531"/><path d="M430.581 125.79l-5.159 13.43-11.95-24.88-6.88 12.7-8.06-19.79-11.121 31.97-3.56-16.12 22.74-48.85 23.99 51.54z" stroke-linecap="round" stroke-linejoin="round" stroke-dasharray="238.8907470703125px 238.8907470703125"/><path d="M374.642 142.88l9.209-19.78" stroke-linecap="round" stroke-linejoin="round" stroke-dasharray="21.818668365478516px 21.818668365478516"/><path d="M465.821 201.5l-15.619-33.561-19.621-42.149" stroke-linecap="round" stroke-linejoin="round" stroke-dasharray="83.50965118408203px 83.50965118408203"/><path d="M378.231 146.76v.01l-2.72 5.66-13.399-13.21-7.66 7.91-4.101-7.11-15.09 12.41-2.09-8.37 21.28-23.05 20.189 21.87z" stroke-linecap="round" stroke-linejoin="round" stroke-dasharray="138.9108123779297px 138.9108123779297"/><path d="M428.202 200.89l-1.65-1.78-48.321-52.34" stroke-linecap="round" stroke-linejoin="round" stroke-dasharray="73.66188049316406px 73.66188049316406"/><path d="M333.171 144.06l-22.49 24.37" stroke-linecap="round" stroke-linejoin="round" stroke-dasharray="33.16167068481445px 33.16167068481445"/><path d="M223.141 119.88l-26.35 44.979" stroke-linecap="round" stroke-linejoin="round" stroke-dasharray="52.12900161743164px 52.12900161743164"/><path d="M284.841 124.31l25.84 44.12 21.39 36.51" stroke-linecap="round" stroke-linejoin="round" stroke-dasharray="93.4444580078125px 93.4444580078125"/><path d="M252.691 69.43l-29.55 50.45 5.07 20.03 8.21-21.67 3.59 8.909 12.68-19.21 8.39 22.67 5.6-15.01 13.07 16.74 5.09-8.03-32.15-54.879z" stroke-linecap="round" stroke-linejoin="round" stroke-dasharray="269.4662170410156px 269.4662170410156"/><path d="M187.541 144.99l-5.25 13.448-8.83-26.59-6.72 20.2-2.99-13.21-6.72 19.6s-1.9-6.448-4.17-14.409v-.011l17.12-36.77 17.56 37.742z" stroke-linecap="round" stroke-linejoin="round" stroke-dasharray="195.20542907714844px 195.20542907714844"/><path d="M214.621 203.149l-17.83-38.29-9.25-19.869" stroke-linecap="round" stroke-linejoin="round" stroke-dasharray="64.15446472167969px 64.15446472167969"/><path d="M152.861 144.03l-25.92 55.689" stroke-linecap="round" stroke-linejoin="round" stroke-dasharray="61.4256477355957px 61.4256477355957"/></g><g class="Outlines__Group-sc-1tn9km4-0 gyYrcy"><path d="M279.252 209.119c-1.841-.211-3.702-.416-5.562-.621a1490.033 1490.033 0 0 0-59.073-5.345 1439.069 1439.069 0 0 0-38.963-2.209 1330.705 1330.705 0 0 0-48.71-1.228c-40.986-.265-82.495 1.475-122.203 6.052" stroke-linecap="round" stroke-linejoin="round" stroke-dasharray="275.09661865234375px 275.09661865234375"/><path d="M13.665 216.313c86.954 7.661 169.659.797 250.229-5.917l8.714-.726 6.644-.551c17.953-1.483 35.567-2.92 52.819-4.176 4.744-.346 9.459-.674 14.143-.987 16.684-1.115 33.002-2.019 48.844-2.536a1009.247 1009.247 0 0 1 33.141-.528c12.803-.002 25.395.221 37.623.611a1336.57 1336.57 0 0 1 43.008 2.08c62.313 4.009 107.162 11.076 107.162 11.076M165.119 238.63c40.972-5.572 83.053-15.879 126.12-15.879 84.751 0 115.583 15.303 175.511 18.193 4.131.199 8.396.341 12.83.413 68.77 1.119 100.229-14.331 142.066-.948" stroke-linecap="round" stroke-linejoin="round" stroke-dasharray="1063.378662109375px 1063.378662109375"/><path d="M348.747 268.825c-19.787-2.664-40.164-6.146-60.945-10.644-44.953-9.728-86.322-15.821-122.683-19.552-48.579-4.984-88.195-5.747-115.396-5.289-26.27.442-49.622 2.803-49.622 2.803" stroke-linecap="round" stroke-linejoin="round" stroke-dasharray="351.4751892089844px 351.4751892089844"/><path d="M624.428 277.675c-18.6-.269-49.768-3.563-64.545-7.066-31.047-7.359-58.98-18.369-106.182-18.369-35.316 0-64.988 9.957-104.955 16.586-31.367 5.204-69.076 8.357-120.841 3.037-153.993-15.826-219.164 5.995-219.164 5.995" stroke-linecap="round" stroke-linejoin="round" stroke-dasharray="621.1527709960938px 621.1527709960938"/></g></svg></svg>